<svg width="36" height="42" viewBox="0 0 36 42" fill="none" xmlns="http://www.w3.org/2000/svg">
<path d="M29.2571 22.6738C29.3174 28.888 34.9666 30.9562 35.0289 30.9826C34.9812 31.128 34.1265 33.9297 32.053 36.8229C30.2607 39.3244 28.4001 41.8167 25.4699 41.8689C22.5906 41.9192 21.6646 40.2381 18.3723 40.2381C15.0811 40.2381 14.0526 41.8167 11.3267 41.9192C8.49791 42.0217 6.34378 39.2137 4.53651 36.7218C0.843733 31.6235 -1.97847 22.3152 1.81089 16.0319C3.69328 12.9116 7.0579 10.936 10.7095 10.8851C13.487 10.8345 16.1088 12.6693 17.8067 12.6693C19.5035 12.6693 22.6896 10.4627 26.0389 10.7866C27.4412 10.8424 31.377 11.3273 33.9043 14.8602C33.7011 14.9808 29.2083 17.4784 29.2571 22.6738ZM23.8457 7.41408C25.3473 5.67841 26.3581 3.2615 26.0826 0.857483C23.9177 0.940449 21.3001 2.23484 19.7476 3.96985C18.356 5.50587 17.1376 7.96509 17.4661 10.3215C19.8791 10.5 22.3437 9.15074 23.8457 7.41408Z" fill="white"/>
</svg>
