<svg width="671" height="531" viewBox="0 0 671 531" fill="none" xmlns="http://www.w3.org/2000/svg">
<path d="M664.038 360.247C641.62 468.799 577.376 563.792 508.934 650.936C440.492 738.079 365.664 821.856 316.042 920.826C266.421 1019.8 244.166 1139.6 286.879 1241.93C329.591 1344.27 426.749 1409.64 510.636 1481.36C594.524 1553.08 674.717 1650.86 662.194 1760.53C650.734 1860.91 559.327 1939.17 460.443 1959.86C361.558 1980.55 258.342 1953.34 166.731 1910.81C-28.0623 1820.36 -184.22 1663.4 -273.668 1468.13C-363.116 1272.87 -379.986 1052.1 -321.245 845.54C-266.906 654.488 -151.47 487.2 -31.3418 328.962C64.5132 202.761 172.698 73.8633 322.634 22.8307C407.106 -5.89424 534.199 -18.1499 595.353 59.0063C659.218 139.379 684.422 261.646 664.038 360.247Z" fill="url(#paint0_linear)"/>
<defs>
<linearGradient id="paint0_linear" x1="69.0086" y1="2040.16" x2="362.489" y2="6.60549" gradientUnits="userSpaceOnUse">
<stop stop-color="#3000FF"/>
<stop offset="0.99" stop-color="#FF31B0" stop-opacity="0"/>
</linearGradient>
</defs>
</svg>
