<svg width="154" height="171" viewBox="0 0 154 171" fill="none" xmlns="http://www.w3.org/2000/svg">
<path d="M151.023 4.78318C152.163 4.78318 153.087 3.85915 153.087 2.7193C153.087 1.57944 152.163 0.655396 151.023 0.655396C149.883 0.655396 148.959 1.57944 148.959 2.7193C148.959 3.85915 149.883 4.78318 151.023 4.78318Z" fill="white"/>
<path d="M130.501 2.71957C130.501 3.13034 130.623 3.53187 130.851 3.8734C131.079 4.21494 131.404 4.48116 131.783 4.63835C132.163 4.79555 132.58 4.83668 132.983 4.75654C133.386 4.6764 133.756 4.47859 134.046 4.18813C134.337 3.89768 134.535 3.52761 134.615 3.12474C134.695 2.72186 134.654 2.30428 134.497 1.92478C134.339 1.54528 134.073 1.22093 133.732 0.992721C133.39 0.764512 132.989 0.6427 132.578 0.6427C132.027 0.6427 131.499 0.861511 131.109 1.251C130.72 1.64049 130.501 2.16876 130.501 2.71957Z" fill="white"/>
<path d="M114.054 4.78318C115.194 4.78318 116.118 3.85915 116.118 2.7193C116.118 1.57944 115.194 0.655396 114.054 0.655396C112.914 0.655396 111.99 1.57944 111.99 2.7193C111.99 3.85915 112.914 4.78318 114.054 4.78318Z" fill="white"/>
<path d="M95.5571 4.78318C96.6969 4.78318 97.6209 3.85915 97.6209 2.7193C97.6209 1.57944 96.6969 0.655396 95.5571 0.655396C94.4172 0.655396 93.4932 1.57944 93.4932 2.7193C93.4932 3.85915 94.4172 4.78318 95.5571 4.78318Z" fill="white"/>
<path d="M75.0094 2.71945C75.0507 3.24023 75.2867 3.72634 75.6704 4.08085C76.0541 4.43537 76.5573 4.63225 77.0798 4.63225C77.6022 4.63225 78.1055 4.43537 78.4892 4.08085C78.8729 3.72634 79.1089 3.24023 79.1502 2.71945C79.1728 2.43378 79.1361 2.14651 79.0423 1.87573C78.9485 1.60494 78.7997 1.3565 78.6053 1.14602C78.4108 0.935533 78.1749 0.76757 77.9123 0.652694C77.6498 0.537819 77.3663 0.478516 77.0798 0.478516C76.7932 0.478516 76.5098 0.537819 76.2473 0.652694C75.9847 0.76757 75.7488 0.935533 75.5543 1.14602C75.3599 1.3565 75.211 1.60494 75.1173 1.87573C75.0235 2.14651 74.9868 2.43378 75.0094 2.71945Z" fill="white"/>
<path d="M56.5127 2.71957C56.5153 3.12721 56.6385 3.52496 56.8669 3.86265C57.0952 4.20034 57.4184 4.46286 57.7957 4.61708C58.1731 4.7713 58.5876 4.81032 58.9871 4.72923C59.3866 4.64813 59.7532 4.45054 60.0405 4.16139C60.3279 3.87224 60.5232 3.50447 60.6018 3.10448C60.6803 2.70448 60.6387 2.29018 60.4821 1.9138C60.3255 1.53743 60.061 1.21587 59.7219 0.989651C59.3828 0.763437 58.9843 0.642708 58.5767 0.6427C58.3045 0.642695 58.035 0.696503 57.7838 0.801034C57.5325 0.905564 57.3045 1.05876 57.1126 1.25179C56.9208 1.44482 56.7691 1.67387 56.6661 1.92577C56.5632 2.17767 56.511 2.44745 56.5127 2.71957Z" fill="white"/>
<path d="M38.0411 2.71957C38.0436 3.12721 38.1668 3.52496 38.3951 3.86265C38.6235 4.20034 38.9467 4.46286 39.324 4.61708C39.7014 4.7713 40.116 4.81032 40.5154 4.72923C40.9149 4.64813 41.2815 4.45054 41.5688 4.16139C41.8562 3.87224 42.0515 3.50447 42.1301 3.10448C42.2087 2.70448 42.167 2.29018 42.0104 1.9138C41.8539 1.53743 41.5893 1.21587 41.2502 0.989651C40.9111 0.763437 40.5125 0.642708 40.1049 0.6427C39.8328 0.642695 39.5633 0.696503 39.3121 0.801034C39.0608 0.905564 38.8328 1.05876 38.641 1.25179C38.4491 1.44482 38.2973 1.67387 38.1944 1.92577C38.0914 2.17767 38.0393 2.44745 38.0411 2.71957Z" fill="white"/>
<path d="M21.6205 4.78318C22.7603 4.78318 23.6844 3.85915 23.6844 2.7193C23.6844 1.57944 22.7603 0.655396 21.6205 0.655396C20.4806 0.655396 19.5566 1.57944 19.5566 2.7193C19.5566 3.85915 20.4806 4.78318 21.6205 4.78318Z" fill="white"/>
<path d="M3.13716 4.78318C4.27702 4.78318 5.201 3.85915 5.201 2.7193C5.201 1.57944 4.27702 0.655396 3.13716 0.655396C1.99731 0.655396 1.07324 1.57944 1.07324 2.7193C1.07324 3.85915 1.99731 4.78318 3.13716 4.78318Z" fill="white"/>
<path d="M153.007 19.2636C153.019 18.1238 152.105 17.1896 150.966 17.1771C149.826 17.1645 148.892 18.0784 148.879 19.2182C148.867 20.358 149.78 21.2921 150.92 21.3047C152.06 21.3172 152.994 20.4034 153.007 19.2636Z" fill="white"/>
<path d="M130.501 19.2566C130.498 19.6679 130.618 20.0708 130.845 20.414C131.071 20.7572 131.395 21.0255 131.774 21.1846C132.153 21.3438 132.571 21.3868 132.975 21.3082C133.379 21.2295 133.75 21.0327 134.042 20.7428C134.334 20.4528 134.533 20.0828 134.614 19.6796C134.695 19.2764 134.655 18.8581 134.498 18.4779C134.341 18.0976 134.075 17.7725 133.733 17.5437C133.391 17.3149 132.989 17.1928 132.578 17.1927C132.029 17.1927 131.503 17.4098 131.114 17.7965C130.725 18.1831 130.504 18.7081 130.501 19.2566Z" fill="white"/>
<path d="M116.034 19.2484C116.047 18.1087 115.133 17.1746 113.993 17.162C112.853 17.1495 111.919 18.0633 111.906 19.203C111.894 20.3428 112.808 21.277 113.948 21.2895C115.087 21.3021 116.021 20.3882 116.034 19.2484Z" fill="white"/>
<path d="M97.5622 19.257C97.5713 18.1172 96.6547 17.1858 95.5149 17.1767C94.3751 17.1675 93.4437 18.084 93.4345 19.2239C93.4254 20.3637 94.342 21.2951 95.4818 21.3043C96.6216 21.3134 97.553 20.3968 97.5622 19.257Z" fill="white"/>
<path d="M75.0098 19.2567C75.0072 19.6685 75.1272 20.0719 75.3544 20.4154C75.5817 20.7589 75.9059 21.0271 76.2859 21.1859C76.6659 21.3447 77.0846 21.3869 77.4886 21.3072C77.8927 21.2275 78.2639 21.0294 78.5552 20.7382C78.8464 20.4469 79.0445 20.0757 79.1243 19.6716C79.204 19.2675 79.1617 18.8489 79.0029 18.4689C78.8441 18.0888 78.5759 17.7646 78.2324 17.5374C77.8889 17.3102 77.4856 17.1902 77.0737 17.1928C76.5264 17.1928 76.0014 17.4102 75.6143 17.7973C75.2272 18.1843 75.0098 18.7093 75.0098 19.2567Z" fill="white"/>
<path d="M56.5127 19.2566C56.5127 19.6648 56.6337 20.0639 56.8605 20.4033C57.0873 20.7427 57.4096 21.0072 57.7867 21.1634C58.1639 21.3196 58.5789 21.3605 58.9792 21.2809C59.3796 21.2012 59.7473 21.0047 60.036 20.716C60.3246 20.4274 60.5212 20.0596 60.6008 19.6593C60.6805 19.2589 60.6396 18.844 60.4834 18.4668C60.3271 18.0897 60.0626 17.7674 59.7232 17.5406C59.3838 17.3138 58.9848 17.1927 58.5766 17.1927C58.0292 17.1927 57.5042 17.4102 57.1172 17.7972C56.7301 18.1843 56.5127 18.7093 56.5127 19.2566Z" fill="white"/>
<path d="M38.041 19.2566C38.041 19.6648 38.162 20.0639 38.3888 20.4033C38.6156 20.7427 38.9379 21.0072 39.3151 21.1634C39.6922 21.3196 40.1071 21.3605 40.5075 21.2809C40.9078 21.2012 41.2756 21.0047 41.5643 20.716C41.8529 20.4274 42.0495 20.0596 42.1291 19.6593C42.2087 19.2589 42.1679 18.844 42.0117 18.4668C41.8555 18.0897 41.5909 17.7674 41.2515 17.5406C40.9121 17.3138 40.5131 17.1927 40.1049 17.1927C39.5575 17.1927 39.0326 17.4102 38.6455 17.7972C38.2585 18.1843 38.041 18.7093 38.041 19.2566Z" fill="white"/>
<path d="M23.6092 19.2555C23.6217 18.1157 22.7079 17.1815 21.5681 17.169C20.4283 17.1565 19.4942 18.0703 19.4817 19.2101C19.4691 20.3499 20.383 21.284 21.5227 21.2965C22.6625 21.309 23.5967 20.3953 23.6092 19.2555Z" fill="white"/>
<path d="M5.11702 19.2548C5.12956 18.115 4.21572 17.1809 3.07594 17.1684C1.93616 17.1558 1.00202 18.0696 0.98949 19.2094C0.976957 20.3492 1.89077 21.2834 3.03055 21.2959C4.17034 21.3084 5.10449 20.3946 5.11702 19.2548Z" fill="white"/>
<path d="M151.023 37.8571C152.163 37.8571 153.087 36.9331 153.087 35.7933C153.087 34.6534 152.163 33.7294 151.023 33.7294C149.883 33.7294 148.959 34.6534 148.959 35.7933C148.959 36.9331 149.883 37.8571 151.023 37.8571Z" fill="white"/>
<path d="M130.501 35.7933C130.498 36.2046 130.618 36.6074 130.845 36.9506C131.071 37.2938 131.395 37.5621 131.774 37.7213C132.153 37.8804 132.571 37.9234 132.975 37.8448C133.379 37.7661 133.75 37.5693 134.042 37.2794C134.334 36.9895 134.533 36.6194 134.614 36.2162C134.695 35.813 134.655 35.3947 134.498 35.0145C134.341 34.6342 134.075 34.3091 133.733 34.0803C133.391 33.8515 132.989 33.7294 132.578 33.7294C132.029 33.7294 131.503 33.9464 131.114 34.3331C130.725 34.7198 130.504 35.2447 130.501 35.7933Z" fill="white"/>
<path d="M114.054 37.8571C115.194 37.8571 116.118 36.9331 116.118 35.7933C116.118 34.6534 115.194 33.7294 114.054 33.7294C112.914 33.7294 111.99 34.6534 111.99 35.7933C111.99 36.9331 112.914 37.8571 114.054 37.8571Z" fill="white"/>
<path d="M95.5571 37.8571C96.6969 37.8571 97.6209 36.9331 97.6209 35.7933C97.6209 34.6534 96.6969 33.7294 95.5571 33.7294C94.4172 33.7294 93.4932 34.6534 93.4932 35.7933C93.4932 36.9331 94.4172 37.8571 95.5571 37.8571Z" fill="white"/>
<path d="M75.0098 35.7933C75.0072 36.2052 75.1272 36.6085 75.3544 36.952C75.5817 37.2955 75.9059 37.5637 76.2859 37.7225C76.6659 37.8813 77.0846 37.9235 77.4886 37.8438C77.8927 37.7641 78.2639 37.566 78.5552 37.2748C78.8464 36.9836 79.0445 36.6123 79.1243 36.2082C79.204 35.8042 79.1617 35.3855 79.0029 35.0055C78.8441 34.6254 78.5759 34.3012 78.2324 34.074C77.8889 33.8468 77.4856 33.7268 77.0737 33.7294C76.5264 33.7294 76.0014 33.9469 75.6143 34.3339C75.2272 34.721 75.0098 35.2459 75.0098 35.7933Z" fill="white"/>
<path d="M56.5127 35.7933C56.5127 36.2014 56.6337 36.6005 56.8605 36.9399C57.0873 37.2793 57.4096 37.5438 57.7867 37.7C58.1639 37.8562 58.5789 37.8971 58.9792 37.8175C59.3796 37.7378 59.7473 37.5413 60.036 37.2526C60.3246 36.964 60.5212 36.5963 60.6008 36.1959C60.6805 35.7955 60.6396 35.3806 60.4834 35.0034C60.3271 34.6263 60.0626 34.304 59.7232 34.0772C59.3838 33.8504 58.9848 33.7294 58.5766 33.7294C58.0292 33.7294 57.5042 33.9468 57.1172 34.3339C56.7301 34.7209 56.5127 35.2459 56.5127 35.7933Z" fill="white"/>
<path d="M38.041 35.7933C38.041 36.2014 38.162 36.6005 38.3888 36.9399C38.6156 37.2793 38.9379 37.5438 39.3151 37.7C39.6922 37.8562 40.1071 37.8971 40.5075 37.8175C40.9078 37.7378 41.2756 37.5413 41.5643 37.2526C41.8529 36.964 42.0495 36.5963 42.1291 36.1959C42.2087 35.7955 42.1679 35.3806 42.0117 35.0034C41.8555 34.6263 41.5909 34.304 41.2515 34.0772C40.9121 33.8504 40.5131 33.7294 40.1049 33.7294C39.5575 33.7294 39.0326 33.9468 38.6455 34.3339C38.2585 34.7209 38.041 35.2459 38.041 35.7933Z" fill="white"/>
<path d="M21.6205 37.8571C22.7603 37.8571 23.6844 36.9331 23.6844 35.7933C23.6844 34.6534 22.7603 33.7294 21.6205 33.7294C20.4806 33.7294 19.5566 34.6534 19.5566 35.7933C19.5566 36.9331 20.4806 37.8571 21.6205 37.8571Z" fill="white"/>
<path d="M3.13716 37.8571C4.27702 37.8571 5.201 36.9331 5.201 35.7933C5.201 34.6534 4.27702 33.7294 3.13716 33.7294C1.99731 33.7294 1.07324 34.6534 1.07324 35.7933C1.07324 36.9331 1.99731 37.8571 3.13716 37.8571Z" fill="white"/>
<path d="M151.023 54.3945C152.163 54.3945 153.087 53.4705 153.087 52.3306C153.087 51.1908 152.163 50.2667 151.023 50.2667C149.883 50.2667 148.959 51.1908 148.959 52.3306C148.959 53.4705 149.883 54.3945 151.023 54.3945Z" fill="white"/>
<path d="M130.501 52.3304C130.478 52.6161 130.515 52.9033 130.608 53.1741C130.702 53.4449 130.851 53.6934 131.046 53.9039C131.24 54.1143 131.476 54.2823 131.738 54.3972C132.001 54.512 132.284 54.5713 132.571 54.5713C132.858 54.5713 133.141 54.512 133.404 54.3972C133.666 54.2823 133.902 54.1143 134.096 53.9039C134.291 53.6934 134.44 53.4449 134.533 53.1741C134.627 52.9033 134.664 52.6161 134.641 52.3304C134.6 51.8096 134.364 51.3235 133.98 50.969C133.597 50.6145 133.093 50.4176 132.571 50.4176C132.049 50.4176 131.545 50.6145 131.162 50.969C130.778 51.3235 130.542 51.8096 130.501 52.3304Z" fill="white"/>
<path d="M114.054 54.3945C115.194 54.3945 116.118 53.4705 116.118 52.3306C116.118 51.1908 115.194 50.2667 114.054 50.2667C112.914 50.2667 111.99 51.1908 111.99 52.3306C111.99 53.4705 112.914 54.3945 114.054 54.3945Z" fill="white"/>
<path d="M95.5571 54.3945C96.6969 54.3945 97.6209 53.4705 97.6209 52.3306C97.6209 51.1908 96.6969 50.2667 95.5571 50.2667C94.4172 50.2667 93.4932 51.1908 93.4932 52.3306C93.4932 53.4705 94.4172 54.3945 95.5571 54.3945Z" fill="white"/>
<path d="M75.0098 52.3307C75.0072 52.7425 75.1272 53.1458 75.3544 53.4894C75.5817 53.8329 75.9059 54.1011 76.2859 54.2599C76.6659 54.4187 77.0846 54.4609 77.4886 54.3812C77.8927 54.3015 78.2639 54.1034 78.5552 53.8122C78.8464 53.5209 79.0445 53.1497 79.1243 52.7456C79.204 52.3415 79.1617 51.9229 79.0029 51.5428C78.8441 51.1628 78.5759 50.8386 78.2324 50.6114C77.8889 50.3842 77.4856 50.2642 77.0737 50.2668C76.5274 50.2702 76.0044 50.4887 75.6181 50.875C75.2318 51.2613 75.0132 51.7843 75.0098 52.3307Z" fill="white"/>
<path d="M56.5127 52.3306C56.5127 52.7388 56.6337 53.1378 56.8605 53.4772C57.0873 53.8166 57.4096 54.0812 57.7867 54.2374C58.1639 54.3936 58.5789 54.4345 58.9792 54.3549C59.3796 54.2752 59.7473 54.0787 60.036 53.79C60.3246 53.5014 60.5212 53.1336 60.6008 52.7333C60.6805 52.3329 60.6396 51.9179 60.4834 51.5408C60.3271 51.1637 60.0626 50.8413 59.7232 50.6146C59.3838 50.3878 58.9848 50.2667 58.5766 50.2667C58.0303 50.2701 57.5073 50.4887 57.121 50.875C56.7347 51.2613 56.5161 51.7843 56.5127 52.3306Z" fill="white"/>
<path d="M38.041 52.3306C38.041 52.7388 38.162 53.1378 38.3888 53.4772C38.6156 53.8166 38.9379 54.0812 39.3151 54.2374C39.6922 54.3936 40.1071 54.4345 40.5075 54.3549C40.9078 54.2752 41.2756 54.0787 41.5643 53.79C41.8529 53.5014 42.0495 53.1336 42.1291 52.7333C42.2087 52.3329 42.1679 51.9179 42.0117 51.5408C41.8555 51.1637 41.5909 50.8413 41.2515 50.6146C40.9121 50.3878 40.5131 50.2667 40.1049 50.2667C39.5585 50.2701 39.0356 50.4887 38.6492 50.875C38.2629 51.2613 38.0444 51.7843 38.041 52.3306Z" fill="white"/>
<path d="M21.6205 54.3945C22.7603 54.3945 23.6844 53.4705 23.6844 52.3306C23.6844 51.1908 22.7603 50.2667 21.6205 50.2667C20.4806 50.2667 19.5566 51.1908 19.5566 52.3306C19.5566 53.4705 20.4806 54.3945 21.6205 54.3945Z" fill="white"/>
<path d="M3.13716 54.3945C4.27702 54.3945 5.201 53.4705 5.201 52.3306C5.201 51.1908 4.27702 50.2667 3.13716 50.2667C1.99731 50.2667 1.07324 51.1908 1.07324 52.3306C1.07324 53.4705 1.99731 54.3945 3.13716 54.3945Z" fill="white"/>
<path d="M151.023 70.9446C152.163 70.9446 153.087 70.0205 153.087 68.8807C153.087 67.7408 152.163 66.8168 151.023 66.8168C149.883 66.8168 148.959 67.7408 148.959 68.8807C148.959 70.0205 149.883 70.9446 151.023 70.9446Z" fill="white"/>
<path d="M130.501 68.8803C130.501 69.2911 130.623 69.6926 130.851 70.0342C131.079 70.3757 131.404 70.6419 131.783 70.7991C132.163 70.9563 132.58 70.9974 132.983 70.9173C133.386 70.8371 133.756 70.6394 134.046 70.3489C134.337 70.0584 134.535 69.6884 134.615 69.2855C134.695 68.8826 134.654 68.465 134.497 68.0855C134.339 67.706 134.073 67.3817 133.732 67.1535C133.39 66.9253 132.989 66.8035 132.578 66.8035C132.027 66.8035 131.499 67.0223 131.109 67.4118C130.72 67.8013 130.501 68.3295 130.501 68.8803Z" fill="white"/>
<path d="M114.054 70.9446C115.194 70.9446 116.118 70.0205 116.118 68.8807C116.118 67.7408 115.194 66.8168 114.054 66.8168C112.914 66.8168 111.99 67.7408 111.99 68.8807C111.99 70.0205 112.914 70.9446 114.054 70.9446Z" fill="white"/>
<path d="M95.5571 70.9446C96.6969 70.9446 97.6209 70.0205 97.6209 68.8807C97.6209 67.7408 96.6969 66.8168 95.5571 66.8168C94.4172 66.8168 93.4932 67.7408 93.4932 68.8807C93.4932 70.0205 94.4172 70.9446 95.5571 70.9446Z" fill="white"/>
<path d="M75.0094 68.8809C75.0507 69.4017 75.2867 69.8878 75.6704 70.2423C76.0541 70.5969 76.5573 70.7937 77.0798 70.7937C77.6022 70.7937 78.1055 70.5969 78.4892 70.2423C78.8729 69.8878 79.1089 69.4017 79.1502 68.8809C79.1728 68.5953 79.1361 68.308 79.0423 68.0372C78.9485 67.7664 78.7997 67.518 78.6053 67.3075C78.4108 67.097 78.1749 66.9291 77.9123 66.8142C77.6498 66.6993 77.3663 66.64 77.0798 66.64C76.7932 66.64 76.5098 66.6993 76.2473 66.8142C75.9847 66.9291 75.7488 67.097 75.5543 67.3075C75.3599 67.518 75.211 67.7664 75.1173 68.0372C75.0235 68.308 74.9868 68.5953 75.0094 68.8809Z" fill="white"/>
<path d="M56.5127 68.8803C56.5153 69.288 56.6385 69.6857 56.8669 70.0234C57.0952 70.3611 57.4184 70.6236 57.7957 70.7778C58.1731 70.932 58.5876 70.9711 58.9871 70.89C59.3866 70.8089 59.7532 70.6113 60.0405 70.3222C60.3279 70.033 60.5232 69.6652 60.6018 69.2652C60.6803 68.8652 60.6387 68.4509 60.4821 68.0746C60.3255 67.6982 60.061 67.3766 59.7219 67.1504C59.3828 66.9242 58.9843 66.8035 58.5767 66.8035C58.3045 66.8035 58.035 66.8573 57.7838 66.9618C57.5325 67.0663 57.3045 67.2195 57.1126 67.4126C56.9208 67.6056 56.7691 67.8346 56.6661 68.0865C56.5632 68.3384 56.511 68.6082 56.5127 68.8803Z" fill="white"/>
<path d="M38.0411 68.8803C38.0436 69.288 38.1668 69.6857 38.3951 70.0234C38.6235 70.3611 38.9467 70.6236 39.324 70.7778C39.7014 70.932 40.116 70.9711 40.5154 70.89C40.9149 70.8089 41.2815 70.6113 41.5688 70.3222C41.8562 70.033 42.0515 69.6652 42.1301 69.2652C42.2087 68.8652 42.167 68.4509 42.0104 68.0746C41.8539 67.6982 41.5893 67.3766 41.2502 67.1504C40.9111 66.9242 40.5125 66.8035 40.1049 66.8035C39.8328 66.8035 39.5633 66.8573 39.3121 66.9618C39.0608 67.0663 38.8328 67.2195 38.641 67.4126C38.4491 67.6056 38.2973 67.8346 38.1944 68.0865C38.0914 68.3384 38.0393 68.6082 38.0411 68.8803Z" fill="white"/>
<path d="M21.6205 70.9446C22.7603 70.9446 23.6844 70.0205 23.6844 68.8807C23.6844 67.7408 22.7603 66.8168 21.6205 66.8168C20.4806 66.8168 19.5566 67.7408 19.5566 68.8807C19.5566 70.0205 20.4806 70.9446 21.6205 70.9446Z" fill="white"/>
<path d="M3.13716 70.9446C4.27702 70.9446 5.201 70.0205 5.201 68.8807C5.201 67.7408 4.27702 66.8168 3.13716 66.8168C1.99731 66.8168 1.07324 67.7408 1.07324 68.8807C1.07324 70.0205 1.99731 70.9446 3.13716 70.9446Z" fill="white"/>
<path d="M151.023 87.4813C152.163 87.4813 153.087 86.5573 153.087 85.4174C153.087 84.2775 152.163 83.3535 151.023 83.3535C149.883 83.3535 148.959 84.2775 148.959 85.4174C148.959 86.5573 149.883 87.4813 151.023 87.4813Z" fill="white"/>
<path d="M130.501 85.4174C130.498 85.8287 130.618 86.2315 130.845 86.5748C131.071 86.918 131.395 87.1862 131.774 87.3454C132.153 87.5046 132.571 87.5476 132.975 87.4689C133.379 87.3903 133.75 87.1935 134.042 86.9035C134.334 86.6136 134.533 86.2436 134.614 85.8404C134.695 85.4371 134.655 85.0189 134.498 84.6386C134.341 84.2584 134.075 83.9332 133.733 83.7044C133.391 83.4757 132.989 83.3535 132.578 83.3535C132.029 83.3535 131.503 83.5705 131.114 83.9572C130.725 84.3439 130.504 84.8688 130.501 85.4174Z" fill="white"/>
<path d="M114.054 87.4813C115.194 87.4813 116.118 86.5573 116.118 85.4174C116.118 84.2775 115.194 83.3535 114.054 83.3535C112.914 83.3535 111.99 84.2775 111.99 85.4174C111.99 86.5573 112.914 87.4813 114.054 87.4813Z" fill="white"/>
<path d="M95.5571 87.4813C96.6969 87.4813 97.6209 86.5573 97.6209 85.4174C97.6209 84.2775 96.6969 83.3535 95.5571 83.3535C94.4172 83.3535 93.4932 84.2775 93.4932 85.4174C93.4932 86.5573 94.4172 87.4813 95.5571 87.4813Z" fill="white"/>
<path d="M75.0098 85.4174C75.0072 85.8293 75.1272 86.2326 75.3544 86.5761C75.5817 86.9197 75.9059 87.1879 76.2859 87.3467C76.6659 87.5055 77.0846 87.5477 77.4886 87.468C77.8927 87.3882 78.2639 87.1902 78.5552 86.8989C78.8464 86.6077 79.0445 86.2365 79.1243 85.8324C79.204 85.4283 79.1617 85.0097 79.0029 84.6296C78.8441 84.2496 78.5759 83.9254 78.2324 83.6982C77.8889 83.4709 77.4856 83.351 77.0737 83.3536C76.5264 83.3536 76.0014 83.571 75.6143 83.9581C75.2272 84.3451 75.0098 84.8701 75.0098 85.4174Z" fill="white"/>
<path d="M56.5127 85.4174C56.5127 85.8256 56.6337 86.2246 56.8605 86.564C57.0873 86.9034 57.4096 87.168 57.7867 87.3242C58.1639 87.4804 58.5789 87.5213 58.9792 87.4416C59.3796 87.362 59.7473 87.1654 60.036 86.8768C60.3246 86.5881 60.5212 86.2204 60.6008 85.82C60.6805 85.4197 60.6396 85.0047 60.4834 84.6276C60.3271 84.2505 60.0626 83.9281 59.7232 83.7013C59.3838 83.4746 58.9848 83.3535 58.5766 83.3535C58.0292 83.3535 57.5042 83.571 57.1172 83.958C56.7301 84.3451 56.5127 84.87 56.5127 85.4174Z" fill="white"/>
<path d="M38.041 85.4174C38.041 85.8256 38.162 86.2246 38.3888 86.564C38.6156 86.9034 38.9379 87.168 39.3151 87.3242C39.6922 87.4804 40.1071 87.5213 40.5075 87.4416C40.9078 87.362 41.2756 87.1654 41.5643 86.8768C41.8529 86.5881 42.0495 86.2204 42.1291 85.82C42.2087 85.4197 42.1679 85.0047 42.0117 84.6276C41.8555 84.2505 41.5909 83.9281 41.2515 83.7013C40.9121 83.4746 40.5131 83.3535 40.1049 83.3535C39.5575 83.3535 39.0326 83.571 38.6455 83.958C38.2585 84.3451 38.041 84.87 38.041 85.4174Z" fill="white"/>
<path d="M21.6205 87.4813C22.7603 87.4813 23.6844 86.5573 23.6844 85.4174C23.6844 84.2775 22.7603 83.3535 21.6205 83.3535C20.4806 83.3535 19.5566 84.2775 19.5566 85.4174C19.5566 86.5573 20.4806 87.4813 21.6205 87.4813Z" fill="white"/>
<path d="M3.13716 87.4813C4.27702 87.4813 5.201 86.5573 5.201 85.4174C5.201 84.2775 4.27702 83.3535 3.13716 83.3535C1.99731 83.3535 1.07324 84.2775 1.07324 85.4174C1.07324 86.5573 1.99731 87.4813 3.13716 87.4813Z" fill="white"/>
<path d="M148.959 101.993C148.959 102.402 149.08 102.801 149.307 103.14C149.534 103.479 149.856 103.744 150.233 103.9C150.61 104.056 151.025 104.097 151.426 104.018C151.826 103.938 152.194 103.741 152.482 103.453C152.771 103.164 152.967 102.796 153.047 102.396C153.127 101.996 153.086 101.581 152.93 101.204C152.774 100.827 152.509 100.504 152.17 100.277C151.83 100.051 151.431 99.9296 151.023 99.9296C150.476 99.9296 149.951 100.147 149.564 100.534C149.177 100.921 148.959 101.446 148.959 101.993Z" fill="white"/>
<path d="M130.501 101.993C130.498 102.405 130.618 102.808 130.845 103.151C131.071 103.494 131.395 103.762 131.774 103.921C132.153 104.081 132.571 104.124 132.975 104.045C133.379 103.966 133.75 103.77 134.042 103.48C134.334 103.19 134.533 102.82 134.614 102.416C134.695 102.013 134.655 101.595 134.498 101.215C134.341 100.834 134.075 100.509 133.733 100.28C133.391 100.052 132.989 99.9296 132.578 99.9296C132.029 99.9296 131.503 100.147 131.114 100.533C130.725 100.92 130.504 101.445 130.501 101.993Z" fill="white"/>
<path d="M111.978 101.993C111.975 102.405 112.095 102.808 112.321 103.151C112.548 103.494 112.871 103.762 113.251 103.921C113.63 104.081 114.048 104.124 114.452 104.045C114.855 103.966 115.227 103.77 115.518 103.48C115.81 103.19 116.009 102.82 116.09 102.416C116.172 102.013 116.131 101.595 115.974 101.215C115.818 100.834 115.552 100.509 115.21 100.28C114.868 100.052 114.466 99.9296 114.054 99.9296C113.506 99.9296 112.98 100.147 112.59 100.533C112.201 100.92 111.981 101.445 111.978 101.993Z" fill="white"/>
<path d="M93.4932 101.993C93.4906 102.405 93.6106 102.809 93.8378 103.152C94.0651 103.496 94.3893 103.764 94.7693 103.923C95.1493 104.082 95.568 104.124 95.972 104.044C96.3761 103.964 96.7473 103.766 97.0386 103.475C97.3298 103.184 97.5279 102.813 97.6077 102.408C97.6874 102.004 97.6452 101.586 97.4864 101.206C97.3276 100.826 97.0593 100.501 96.7158 100.274C96.3723 100.047 95.969 99.927 95.5571 99.9296C95.0097 99.9296 94.4848 100.147 94.0977 100.534C93.7106 100.921 93.4932 101.446 93.4932 101.993Z" fill="white"/>
<path d="M75.0098 101.993C75.0072 102.405 75.1272 102.809 75.3544 103.152C75.5817 103.496 75.9059 103.764 76.2859 103.923C76.6659 104.082 77.0846 104.124 77.4886 104.044C77.8927 103.964 78.2639 103.766 78.5552 103.475C78.8464 103.184 79.0445 102.813 79.1243 102.408C79.204 102.004 79.1617 101.586 79.0029 101.206C78.8441 100.826 78.5759 100.501 78.2324 100.274C77.8889 100.047 77.4856 99.927 77.0737 99.9296C76.5264 99.9296 76.0014 100.147 75.6143 100.534C75.2272 100.921 75.0098 101.446 75.0098 101.993Z" fill="white"/>
<path d="M56.5127 101.993C56.5127 102.402 56.6337 102.801 56.8605 103.14C57.0873 103.479 57.4096 103.744 57.7867 103.9C58.1639 104.056 58.5789 104.097 58.9792 104.018C59.3796 103.938 59.7473 103.741 60.036 103.453C60.3246 103.164 60.5212 102.796 60.6008 102.396C60.6805 101.996 60.6396 101.581 60.4834 101.204C60.3271 100.827 60.0626 100.504 59.7232 100.277C59.3838 100.051 58.9848 99.9296 58.5766 99.9296C58.0292 99.9296 57.5042 100.147 57.1172 100.534C56.7301 100.921 56.5127 101.446 56.5127 101.993Z" fill="white"/>
<path d="M38.041 101.993C38.041 102.402 38.162 102.801 38.3888 103.14C38.6156 103.479 38.9379 103.744 39.3151 103.9C39.6922 104.056 40.1071 104.097 40.5075 104.018C40.9078 103.938 41.2756 103.741 41.5643 103.453C41.8529 103.164 42.0495 102.796 42.1291 102.396C42.2087 101.996 42.1679 101.581 42.0117 101.204C41.8555 100.827 41.5909 100.504 41.2515 100.277C40.9121 100.051 40.5131 99.9296 40.1049 99.9296C39.5575 99.9296 39.0326 100.147 38.6455 100.534C38.2585 100.921 38.041 101.446 38.041 101.993Z" fill="white"/>
<path d="M19.544 101.993C19.5414 102.405 19.661 102.808 19.8877 103.151C20.1143 103.494 20.4377 103.762 20.817 103.921C21.1963 104.081 21.6143 104.124 22.018 104.045C22.4217 103.966 22.793 103.77 23.0848 103.48C23.3765 103.19 23.5756 102.82 23.6568 102.416C23.738 102.013 23.6976 101.595 23.5408 101.215C23.384 100.834 23.1178 100.509 22.776 100.28C22.4342 100.052 22.0321 99.9296 21.6208 99.9296C21.0722 99.9296 20.5459 100.147 20.1568 100.533C19.7677 100.92 19.5474 101.445 19.544 101.993Z" fill="white"/>
<path d="M1.05961 101.993C1.05704 102.405 1.17665 102.808 1.40329 103.151C1.62993 103.494 1.95335 103.762 2.33262 103.921C2.71188 104.081 3.12988 104.124 3.53361 104.045C3.93733 103.966 4.30863 103.77 4.60039 103.48C4.89214 103.19 5.09121 102.82 5.1724 102.416C5.25359 102.013 5.21322 101.595 5.05641 101.215C4.89961 100.834 4.63346 100.509 4.29164 100.28C3.94983 100.052 3.54776 99.9296 3.13645 99.9296C2.58787 99.9296 2.06154 100.147 1.67243 100.533C1.28331 100.92 1.06304 101.445 1.05961 101.993Z" fill="white"/>
<path d="M148.959 118.492C148.959 118.9 149.08 119.299 149.307 119.638C149.534 119.978 149.856 120.242 150.233 120.398C150.61 120.555 151.025 120.595 151.426 120.516C151.826 120.436 152.194 120.24 152.482 119.951C152.771 119.662 152.967 119.294 153.047 118.894C153.127 118.494 153.086 118.079 152.93 117.702C152.774 117.325 152.509 117.002 152.17 116.775C151.83 116.549 151.431 116.428 151.023 116.428C150.477 116.431 149.954 116.65 149.567 117.036C149.181 117.422 148.962 117.945 148.959 118.492Z" fill="white"/>
<path d="M130.501 118.492C130.478 118.778 130.515 119.065 130.608 119.336C130.702 119.606 130.851 119.855 131.046 120.065C131.24 120.276 131.476 120.444 131.738 120.559C132.001 120.674 132.284 120.733 132.571 120.733C132.858 120.733 133.141 120.674 133.404 120.559C133.666 120.444 133.902 120.276 134.096 120.065C134.291 119.855 134.44 119.606 134.533 119.336C134.627 119.065 134.664 118.778 134.641 118.492C134.6 117.971 134.364 117.485 133.98 117.13C133.597 116.776 133.093 116.579 132.571 116.579C132.049 116.579 131.545 116.776 131.162 117.13C130.778 117.485 130.542 117.971 130.501 118.492Z" fill="white"/>
<path d="M111.977 118.492C111.955 118.778 111.991 119.065 112.085 119.336C112.179 119.606 112.328 119.855 112.522 120.065C112.717 120.276 112.952 120.444 113.215 120.559C113.478 120.674 113.761 120.733 114.048 120.733C114.334 120.733 114.618 120.674 114.88 120.559C115.143 120.444 115.379 120.276 115.573 120.065C115.767 119.855 115.916 119.606 116.01 119.336C116.104 119.065 116.141 118.778 116.118 118.492C116.077 117.971 115.841 117.485 115.457 117.13C115.073 116.776 114.57 116.579 114.048 116.579C113.525 116.579 113.022 116.776 112.638 117.13C112.255 117.485 112.018 117.971 111.977 118.492Z" fill="white"/>
<path d="M93.4932 118.492C93.4906 118.903 93.6106 119.307 93.8378 119.65C94.0651 119.994 94.3893 120.262 94.7693 120.421C95.1493 120.58 95.568 120.622 95.972 120.542C96.3761 120.462 96.7473 120.264 97.0386 119.973C97.3298 119.682 97.5279 119.311 97.6077 118.906C97.6874 118.502 97.6452 118.084 97.4864 117.704C97.3276 117.324 97.0593 116.999 96.7158 116.772C96.3723 116.545 95.969 116.425 95.5571 116.428C95.0108 116.431 94.4878 116.65 94.1015 117.036C93.7152 117.422 93.4966 117.945 93.4932 118.492Z" fill="white"/>
<path d="M75.0098 118.492C75.0072 118.903 75.1272 119.307 75.3544 119.65C75.5817 119.994 75.9059 120.262 76.2859 120.421C76.6659 120.58 77.0846 120.622 77.4886 120.542C77.8927 120.462 78.2639 120.264 78.5552 119.973C78.8464 119.682 79.0445 119.311 79.1243 118.906C79.204 118.502 79.1617 118.084 79.0029 117.704C78.8441 117.324 78.5759 116.999 78.2324 116.772C77.8889 116.545 77.4856 116.425 77.0737 116.428C76.5274 116.431 76.0044 116.65 75.6181 117.036C75.2318 117.422 75.0132 117.945 75.0098 118.492Z" fill="white"/>
<path d="M56.5127 118.492C56.5127 118.9 56.6337 119.299 56.8605 119.638C57.0873 119.978 57.4096 120.242 57.7867 120.398C58.1639 120.555 58.5789 120.595 58.9792 120.516C59.3796 120.436 59.7473 120.24 60.036 119.951C60.3246 119.662 60.5212 119.294 60.6008 118.894C60.6805 118.494 60.6396 118.079 60.4834 117.702C60.3271 117.325 60.0626 117.002 59.7232 116.775C59.3838 116.549 58.9848 116.428 58.5766 116.428C58.0303 116.431 57.5073 116.65 57.121 117.036C56.7347 117.422 56.5161 117.945 56.5127 118.492Z" fill="white"/>
<path d="M38.041 118.492C38.041 118.9 38.162 119.299 38.3888 119.638C38.6156 119.978 38.9379 120.242 39.3151 120.398C39.6922 120.555 40.1071 120.595 40.5075 120.516C40.9078 120.436 41.2756 120.24 41.5643 119.951C41.8529 119.662 42.0495 119.294 42.1291 118.894C42.2087 118.494 42.1679 118.079 42.0117 117.702C41.8555 117.325 41.5909 117.002 41.2515 116.775C40.9121 116.549 40.5131 116.428 40.1049 116.428C39.5585 116.431 39.0356 116.65 38.6492 117.036C38.2629 117.422 38.0444 117.945 38.041 118.492Z" fill="white"/>
<path d="M19.5436 118.492C19.521 118.778 19.5577 119.065 19.6514 119.336C19.7452 119.606 19.8941 119.855 20.0885 120.065C20.283 120.276 20.5189 120.444 20.7814 120.559C21.044 120.674 21.3274 120.733 21.6139 120.733C21.9005 120.733 22.184 120.674 22.4465 120.559C22.7091 120.444 22.945 120.276 23.1394 120.065C23.3339 119.855 23.4827 119.606 23.5765 119.336C23.6702 119.065 23.707 118.778 23.6844 118.492C23.6431 117.971 23.407 117.485 23.0233 117.13C22.6396 116.776 22.1364 116.579 21.6139 116.579C21.0915 116.579 20.5883 116.776 20.2046 117.13C19.8209 117.485 19.5849 117.971 19.5436 118.492Z" fill="white"/>
<path d="M1.06021 118.492C1.03757 118.778 1.07425 119.065 1.16803 119.336C1.26181 119.606 1.41058 119.855 1.60504 120.065C1.79951 120.276 2.03542 120.444 2.29796 120.559C2.56049 120.674 2.84398 120.733 3.13054 120.733C3.41711 120.733 3.7006 120.674 3.96313 120.559C4.22566 120.444 4.46158 120.276 4.65604 120.065C4.85051 119.855 4.99928 119.606 5.09305 119.336C5.18683 119.065 5.22352 118.778 5.20088 118.492C5.15961 117.971 4.92362 117.485 4.5399 117.13C4.15618 116.776 3.65296 116.579 3.13054 116.579C2.60812 116.579 2.10491 116.776 1.72119 117.13C1.33747 117.485 1.10147 117.971 1.06021 118.492Z" fill="white"/>
<path d="M151.023 137.105C152.163 137.105 153.087 136.181 153.087 135.042C153.087 133.902 152.163 132.978 151.023 132.978C149.883 132.978 148.959 133.902 148.959 135.042C148.959 136.181 149.883 137.105 151.023 137.105Z" fill="white"/>
<path d="M130.501 135.042C130.501 135.453 130.623 135.854 130.851 136.196C131.079 136.537 131.404 136.803 131.783 136.961C132.163 137.118 132.58 137.159 132.983 137.079C133.386 136.999 133.756 136.801 134.046 136.51C134.337 136.22 134.535 135.85 134.615 135.447C134.695 135.044 134.654 134.627 134.497 134.247C134.339 133.868 134.073 133.543 133.732 133.315C133.39 133.087 132.989 132.965 132.578 132.965C132.305 132.965 132.035 133.019 131.783 133.123C131.531 133.227 131.302 133.38 131.109 133.573C130.916 133.766 130.763 133.995 130.659 134.247C130.555 134.499 130.501 134.769 130.501 135.042Z" fill="white"/>
<path d="M114.054 137.105C115.194 137.105 116.118 136.181 116.118 135.042C116.118 133.902 115.194 132.978 114.054 132.978C112.914 132.978 111.99 133.902 111.99 135.042C111.99 136.181 112.914 137.105 114.054 137.105Z" fill="white"/>
<path d="M95.5571 137.105C96.6969 137.105 97.6209 136.181 97.6209 135.042C97.6209 133.902 96.6969 132.978 95.5571 132.978C94.4172 132.978 93.4932 133.902 93.4932 135.042C93.4932 136.181 94.4172 137.105 95.5571 137.105Z" fill="white"/>
<path d="M75.0094 135.042C75.0507 135.562 75.2867 136.049 75.6704 136.403C76.0541 136.758 76.5573 136.954 77.0798 136.954C77.6022 136.954 78.1055 136.758 78.4892 136.403C78.8729 136.049 79.1089 135.562 79.1502 135.042C79.1728 134.756 79.1361 134.469 79.0423 134.198C78.9485 133.927 78.7997 133.679 78.6053 133.468C78.4108 133.258 78.1749 133.09 77.9123 132.975C77.6498 132.86 77.3663 132.801 77.0798 132.801C76.7932 132.801 76.5098 132.86 76.2473 132.975C75.9847 133.09 75.7488 133.258 75.5543 133.468C75.3599 133.679 75.211 133.927 75.1173 134.198C75.0235 134.469 74.9868 134.756 75.0094 135.042Z" fill="white"/>
<path d="M56.5127 135.042C56.5153 135.449 56.6385 135.847 56.8669 136.185C57.0952 136.523 57.4184 136.785 57.7957 136.939C58.1731 137.094 58.5876 137.133 58.9871 137.051C59.3866 136.97 59.7532 136.773 60.0405 136.484C60.3279 136.195 60.5232 135.827 60.6018 135.427C60.6803 135.027 60.6387 134.612 60.4821 134.236C60.3255 133.86 60.061 133.538 59.7219 133.312C59.3828 133.086 58.9843 132.965 58.5767 132.965C58.3045 132.965 58.035 133.019 57.7838 133.123C57.5325 133.228 57.3045 133.381 57.1126 133.574C56.9208 133.767 56.7691 133.996 56.6661 134.248C56.5632 134.5 56.511 134.77 56.5127 135.042Z" fill="white"/>
<path d="M38.0411 135.042C38.0436 135.449 38.1668 135.847 38.3951 136.185C38.6235 136.523 38.9467 136.785 39.324 136.939C39.7014 137.094 40.116 137.133 40.5154 137.051C40.9149 136.97 41.2815 136.773 41.5688 136.484C41.8562 136.195 42.0515 135.827 42.1301 135.427C42.2087 135.027 42.167 134.612 42.0104 134.236C41.8539 133.86 41.5893 133.538 41.2502 133.312C40.9111 133.086 40.5125 132.965 40.1049 132.965C39.8328 132.965 39.5633 133.019 39.3121 133.123C39.0608 133.228 38.8328 133.381 38.641 133.574C38.4491 133.767 38.2973 133.996 38.1944 134.248C38.0914 134.5 38.0393 134.77 38.0411 135.042Z" fill="white"/>
<path d="M21.6205 137.105C22.7603 137.105 23.6844 136.181 23.6844 135.042C23.6844 133.902 22.7603 132.978 21.6205 132.978C20.4806 132.978 19.5566 133.902 19.5566 135.042C19.5566 136.181 20.4806 137.105 21.6205 137.105Z" fill="white"/>
<path d="M3.13716 137.105C4.27702 137.105 5.201 136.181 5.201 135.042C5.201 133.902 4.27702 132.978 3.13716 132.978C1.99731 132.978 1.07324 133.902 1.07324 135.042C1.07324 136.181 1.99731 137.105 3.13716 137.105Z" fill="white"/>
<path d="M151.023 153.643C152.163 153.643 153.087 152.719 153.087 151.579C153.087 150.439 152.163 149.515 151.023 149.515C149.883 149.515 148.959 150.439 148.959 151.579C148.959 152.719 149.883 153.643 151.023 153.643Z" fill="white"/>
<path d="M130.501 151.579C130.498 151.99 130.618 152.393 130.845 152.736C131.071 153.08 131.395 153.348 131.774 153.507C132.153 153.666 132.571 153.709 132.975 153.63C133.379 153.552 133.75 153.355 134.042 153.065C134.334 152.775 134.533 152.405 134.614 152.002C134.695 151.599 134.655 151.18 134.498 150.8C134.341 150.42 134.075 150.095 133.733 149.866C133.391 149.637 132.989 149.515 132.578 149.515C132.029 149.515 131.503 149.732 131.114 150.119C130.725 150.505 130.504 151.03 130.501 151.579Z" fill="white"/>
<path d="M114.054 153.643C115.194 153.643 116.118 152.719 116.118 151.579C116.118 150.439 115.194 149.515 114.054 149.515C112.914 149.515 111.99 150.439 111.99 151.579C111.99 152.719 112.914 153.643 114.054 153.643Z" fill="white"/>
<path d="M95.5571 153.643C96.6969 153.643 97.6209 152.719 97.6209 151.579C97.6209 150.439 96.6969 149.515 95.5571 149.515C94.4172 149.515 93.4932 150.439 93.4932 151.579C93.4932 152.719 94.4172 153.643 95.5571 153.643Z" fill="white"/>
<path d="M75.0098 151.579C75.0072 151.991 75.1272 152.394 75.3544 152.738C75.5817 153.081 75.9059 153.349 76.2859 153.508C76.6659 153.667 77.0846 153.709 77.4886 153.63C77.8927 153.55 78.2639 153.352 78.5552 153.06C78.8464 152.769 79.0445 152.398 79.1243 151.994C79.204 151.59 79.1617 151.171 79.0029 150.791C78.8441 150.411 78.5759 150.087 78.2324 149.86C77.8889 149.632 77.4856 149.512 77.0737 149.515C76.5264 149.515 76.0014 149.733 75.6143 150.12C75.2272 150.507 75.0098 151.032 75.0098 151.579Z" fill="white"/>
<path d="M56.5127 151.579C56.5127 151.987 56.6337 152.386 56.8605 152.726C57.0873 153.065 57.4096 153.33 57.7867 153.486C58.1639 153.642 58.5789 153.683 58.9792 153.603C59.3796 153.524 59.7473 153.327 60.036 153.038C60.3246 152.75 60.5212 152.382 60.6008 151.982C60.6805 151.581 60.6396 151.166 60.4834 150.789C60.3271 150.412 60.0626 150.09 59.7232 149.863C59.3838 149.636 58.9848 149.515 58.5766 149.515C58.0292 149.515 57.5042 149.732 57.1172 150.12C56.7301 150.507 56.5127 151.032 56.5127 151.579Z" fill="white"/>
<path d="M38.041 151.579C38.041 151.987 38.162 152.386 38.3888 152.726C38.6156 153.065 38.9379 153.33 39.3151 153.486C39.6922 153.642 40.1071 153.683 40.5075 153.603C40.9078 153.524 41.2756 153.327 41.5643 153.038C41.8529 152.75 42.0495 152.382 42.1291 151.982C42.2087 151.581 42.1679 151.166 42.0117 150.789C41.8555 150.412 41.5909 150.09 41.2515 149.863C40.9121 149.636 40.5131 149.515 40.1049 149.515C39.5575 149.515 39.0326 149.732 38.6455 150.12C38.2585 150.507 38.041 151.032 38.041 151.579Z" fill="white"/>
<path d="M21.6205 153.643C22.7603 153.643 23.6844 152.719 23.6844 151.579C23.6844 150.439 22.7603 149.515 21.6205 149.515C20.4806 149.515 19.5566 150.439 19.5566 151.579C19.5566 152.719 20.4806 153.643 21.6205 153.643Z" fill="white"/>
<path d="M3.13716 153.643C4.27702 153.643 5.201 152.719 5.201 151.579C5.201 150.439 4.27702 149.515 3.13716 149.515C1.99731 149.515 1.07324 150.439 1.07324 151.579C1.07324 152.719 1.99731 153.643 3.13716 153.643Z" fill="white"/>
<path d="M151.023 170.18C152.163 170.18 153.087 169.256 153.087 168.116C153.087 166.976 152.163 166.052 151.023 166.052C149.883 166.052 148.959 166.976 148.959 168.116C148.959 169.256 149.883 170.18 151.023 170.18Z" fill="white"/>
<path d="M130.501 168.116C130.498 168.528 130.618 168.93 130.845 169.274C131.071 169.617 131.395 169.885 131.774 170.044C132.153 170.203 132.571 170.246 132.975 170.168C133.379 170.089 133.75 169.892 134.042 169.602C134.334 169.312 134.533 168.942 134.614 168.539C134.695 168.136 134.655 167.718 134.498 167.337C134.341 166.957 134.075 166.632 133.733 166.403C133.391 166.175 132.989 166.052 132.578 166.052C132.029 166.052 131.503 166.269 131.114 166.656C130.725 167.043 130.504 167.568 130.501 168.116Z" fill="white"/>
<path d="M114.054 170.18C115.194 170.18 116.118 169.256 116.118 168.116C116.118 166.976 115.194 166.052 114.054 166.052C112.914 166.052 111.99 166.976 111.99 168.116C111.99 169.256 112.914 170.18 114.054 170.18Z" fill="white"/>
<path d="M95.5571 170.18C96.6969 170.18 97.6209 169.256 97.6209 168.116C97.6209 166.976 96.6969 166.052 95.5571 166.052C94.4172 166.052 93.4932 166.976 93.4932 168.116C93.4932 169.256 94.4172 170.18 95.5571 170.18Z" fill="white"/>
<path d="M75.0098 168.116C75.0072 168.528 75.1272 168.931 75.3544 169.274C75.5817 169.618 75.9059 169.886 76.2859 170.045C76.6659 170.204 77.0846 170.246 77.4886 170.166C77.8927 170.086 78.2639 169.888 78.5552 169.597C78.8464 169.306 79.0445 168.935 79.1243 168.531C79.204 168.127 79.1617 167.708 79.0029 167.328C78.8441 166.948 78.5759 166.624 78.2324 166.396C77.8889 166.169 77.4856 166.049 77.0737 166.052C76.5264 166.052 76.0014 166.269 75.6143 166.656C75.2272 167.043 75.0098 167.568 75.0098 168.116Z" fill="white"/>
<path d="M56.5127 168.116C56.5127 168.524 56.6337 168.923 56.8605 169.263C57.0873 169.602 57.4096 169.867 57.7867 170.023C58.1639 170.179 58.5789 170.22 58.9792 170.14C59.3796 170.061 59.7473 169.864 60.036 169.576C60.3246 169.287 60.5212 168.919 60.6008 168.519C60.6805 168.119 60.6396 167.704 60.4834 167.326C60.3271 166.949 60.0626 166.627 59.7232 166.4C59.3838 166.173 58.9848 166.052 58.5766 166.052C58.0292 166.052 57.5042 166.27 57.1172 166.657C56.7301 167.044 56.5127 167.569 56.5127 168.116Z" fill="white"/>
<path d="M38.041 168.116C38.041 168.524 38.162 168.923 38.3888 169.263C38.6156 169.602 38.9379 169.867 39.3151 170.023C39.6922 170.179 40.1071 170.22 40.5075 170.14C40.9078 170.061 41.2756 169.864 41.5643 169.576C41.8529 169.287 42.0495 168.919 42.1291 168.519C42.2087 168.119 42.1679 167.704 42.0117 167.326C41.8555 166.949 41.5909 166.627 41.2515 166.4C40.9121 166.173 40.5131 166.052 40.1049 166.052C39.5575 166.052 39.0326 166.27 38.6455 166.657C38.2585 167.044 38.041 167.569 38.041 168.116Z" fill="white"/>
<path d="M21.6205 170.18C22.7603 170.18 23.6844 169.256 23.6844 168.116C23.6844 166.976 22.7603 166.052 21.6205 166.052C20.4806 166.052 19.5566 166.976 19.5566 168.116C19.5566 169.256 20.4806 170.18 21.6205 170.18Z" fill="white"/>
<path d="M3.13716 170.18C4.27702 170.18 5.201 169.256 5.201 168.116C5.201 166.976 4.27702 166.052 3.13716 166.052C1.99731 166.052 1.07324 166.976 1.07324 168.116C1.07324 169.256 1.99731 170.18 3.13716 170.18Z" fill="white"/>
</svg>
