<svg width="188" height="459" viewBox="0 0 188 459" fill="none" xmlns="http://www.w3.org/2000/svg">
<path d="M-278.091 49.9486C-248.103 52.3477 -218.87 40.9143 -188.984 37.5667C-159.097 34.2191 -123.422 42.7479 -111.504 70.4045C-102.444 91.4201 -110.511 115.803 -121.411 135.927C-132.312 156.052 -146.3 175.363 -149.785 197.979C-155.011 231.883 -131.85 267.842 -98.8226 277.075C-65.7956 286.308 -27.3103 267.645 -14.133 236.011C-9.13953 224.008 -7.49922 210.79 -2.15931 198.939C7.9904 176.43 31.2028 161.237 55.6419 157.744C80.0811 154.25 105.331 161.512 126.165 174.704C172.956 204.273 197.542 265.1 184.456 318.879C176.171 352.913 154.406 382.81 126.871 404.466C99.335 426.123 66.2898 439.984 32.3233 448.566C-76.2509 476.001 -197.33 448.242 -283.067 376.239C-368.805 304.237 -417.129 189.834 -408.914 78.1478C-407.299 56.2484 -396.845 -5.50381 -363.48 0.825532C-348.776 3.60586 -338.182 23.8568 -326.2 32.2724C-312.016 42.3283 -295.412 48.4291 -278.091 49.9486Z" fill="url(#paint0_linear)"/>
<defs>
<linearGradient id="paint0_linear" x1="336420" y1="-301066" x2="116948" y2="-126936" gradientUnits="userSpaceOnUse">
<stop offset="0.01" stop-color="#5F00CC"/>
<stop offset="1" stop-color="#290254"/>
</linearGradient>
</defs>
</svg>
