<svg width="417" height="671" viewBox="0 0 417 671" fill="none" xmlns="http://www.w3.org/2000/svg">
<path d="M235.092 168.095C254.008 195.366 285.139 216.481 307.084 242.402C323.711 262.03 334.803 284.111 339.646 307.226C344.489 330.342 342.976 353.979 335.205 376.618C327.433 399.258 313.574 420.399 294.52 438.681C275.466 456.964 251.638 471.983 224.568 482.774C179.631 500.682 127.892 506.149 82.0403 522.668C36.189 539.186 -6.09228 573.314 0.726188 611.817C6.20804 642.867 44.4456 666.839 85.0011 670.437C125.557 674.034 166.366 660.048 196.229 638.686C226.091 617.323 246.327 589.235 262.671 560.522C280.487 529.213 301.585 491.696 345.372 485.839C363.713 483.385 382.425 487.398 401.036 487.359C433.471 487.294 464.382 474.658 486.969 456.802C509.557 438.946 524.547 416.221 535.832 392.885C589.822 281.295 558.623 148.032 457.428 57.8433C430.476 33.819 397.602 12.1322 357.791 3.62629C234.872 -22.6446 187.955 100.152 235.092 168.095Z" fill="url(#paint0_linear)"/>
<defs>
<linearGradient id="paint0_linear" x1="379249" y1="231649" x2="574988" y2="231649" gradientUnits="userSpaceOnUse">
<stop stop-color="#DA4042"/>
<stop offset="0.27" stop-color="#E5334E"/>
<stop offset="0.85" stop-color="#A81670"/>
<stop offset="1" stop-color="#960E7A"/>
</linearGradient>
</defs>
</svg>
