<svg width="1289" height="1920" viewBox="0 0 1289 1920" fill="none" xmlns="http://www.w3.org/2000/svg">
<path d="M1885.84 1143.08C1818.28 1205.53 1718.24 1221.84 1627.16 1209.04C1536.07 1196.24 1450.82 1157.97 1365.8 1122.87C1280.78 1087.77 1192.24 1055.05 1100.33 1054.14C966.775 1052.96 843.224 1118.3 723.02 1176.33C602.815 1234.37 470 1287.88 339.255 1260.89C261.992 1245.01 185.709 1193.27 169.011 1116.22C151.944 1038.07 199.487 961.241 248.858 898.25C437.821 657.188 684.994 469.559 929.266 284.769C989.468 239.249 1053.21 192.166 1127.98 181.679C1196.7 171.997 1265.86 194.824 1328.87 224.005C1502.61 304.738 1648.4 435.343 1747.69 599.195C1846.97 763.047 1895.26 952.736 1886.4 1144.12" fill="url(#paint0_linear)"/>
<defs>
<linearGradient id="paint0_linear" x1="1702.04" y1="526.875" x2="333.374" y2="1393.11" gradientUnits="userSpaceOnUse">
<stop stop-color="#8E64DA"/>
<stop offset="1" stop-color="#643CBC"/>
</linearGradient>
</defs>
</svg>
